# xmcd
#
# Track frame offsets: 
#        150
#        17331
#        39705
#        57149
#        75958
#        90657
#        113492
#        141191
#        159190
#        181355
#        202099
#
# Disc length: 3117 seconds
#
# Revision: 0
# Processed by: cddbd v1.5.2PL0 Copyright (c) Steve Scherf et al.
# Submitted via: ExactAudioCopy v0.95a4
#
DISCID=7d0c2b0b
DTITLE=Mojomama - Mojomama
DYEAR=2015
DGENRE=Blues
TTITLE0=Lying In The Dark
TTITLE1=Eternity
TTITLE2=Dig Deeper
TTITLE3=Tell It Like It Is
TTITLE4=Be A Legend
TTITLE5=Fool For Your Love
TTITLE6=Liberation
TTITLE7=Forbidden Love
TTITLE8=Complicated Melody
TTITLE9=Love Hangover
TTITLE10=Night After Night
EXTD=
EXTT0=
EXTT1=
EXTT2=
EXTT3=
EXTT4=
EXTT5=
EXTT6=
EXTT7=
EXTT8=
EXTT9=
EXTT10=
PLAYORDER=
